<svg  xmlns="http://www.w3.org/2000/svg" viewBox="0 0 1440 320">
                <path fill="#0099ff" fill-opacity="1"
                    d="M0,96L24,106.7C48,117,96,139,144,160C192,181,240,203,288,176C336,149,384,75,432,42.7C480,11,528,21,576,64C624,107,672,181,720,213.3C768,245,816,235,864,202.7C912,171,960,117,1008,122.7C1056,128,1104,192,1152,218.7C1200,245,1248,235,1296,202.7C1344,171,1392,117,1416,90.7L1440,64L1440,320L1416,320C1392,320,1344,320,1296,320C1248,320,1200,320,1152,320C1104,320,1056,320,1008,320C960,320,912,320,864,320C816,320,768,320,720,320C672,320,624,320,576,320C528,320,480,320,432,320C384,320,336,320,288,320C240,320,192,320,144,320C96,320,48,320,24,320L0,320Z">
                </path>
            </svg>